<?xml version="1.0" encoding="utf-8"?>
<!DOCTYPE svg PUBLIC "-//W3C//DTD SVG 1.1//EN" "http://www.w3.org/Graphics/SVG/1.1/DTD/svg11.dtd">
<svg version="1.1" id="Layer_1" xmlns="http://www.w3.org/2000/svg" xmlns:xlink="http://www.w3.org/1999/xlink" x="0px" y="0px"
	 width="100px" height="100px" viewBox="0 0 100 100" style="enable-background:new 0 0 100 100;" xml:space="preserve">
<path style="fill:#80CDEA;" d="M100,94c0,3.313-2.687,6-6,6H6c-3.313,0-6-2.687-6-6V6c0-3.313,2.687-6,6-6h88c3.313,0,6,2.687,6,6
	V94z"/>
<rect x="15" y="73" style="fill:#004D6A;" width="70" height="21"/>
<g>
	<path style="fill:#FFFFFF;" d="M31.688,77.576H34.6l2.24,3.648l2.32-3.648h2.752l-3.664,5.456L42.23,89h-2.99l-2.496-3.952
		L34.199,89h-2.816l3.984-5.984L31.688,77.576z"/>
	<path style="fill:#FFFFFF;" d="M47.975,77.576l2.672,7.856h0.033l2.527-7.856h3.537V89h-2.354v-8.096h-0.031L51.559,89h-1.936
		l-2.799-8.016h-0.033V89h-2.352V77.576H47.975z"/>
	<path style="fill:#FFFFFF;" d="M62.664,77.576v9.312h5.566V89h-8.08V77.576H62.664z"/>
</g>
<g>
	<path style="fill:#004D6A;" d="M85,51.75v12.5c0,1.041,0,3.75,0,3.75h-3.75h-12.5C67.708,68,65,68,65,68v-3.75v-12.5
		c0-1.041,0-3.75,0-3.75h3.75H72v-7H52v7h4.25c1.041,0,3.75,0,3.75,0v3.75v12.5c0,1.041,0,3.75,0,3.75h-3.75h-12.5
		C42.708,68,40,68,40,68v-3.75v-12.5c0-1.041,0-3.75,0-3.75h3.75H47v-7H27v7h4.25c1.041,0,3.75,0,3.75,0v3.75v12.5
		c0,1.041,0,3.75,0,3.75h-3.75h-12.5C17.708,68,15,68,15,68v-3.75v-12.5c0-1.041,0-3.75,0-3.75h3.75H22v-7.5c0-1.354,0-4.5,0-4.5
		h5.5H47v-8h-3.25C42.708,28,40,28,40,28v-3.75v-12.5C40,10.709,40,8,40,8h3.75h12.5C57.291,8,60,8,60,8v3.75v12.5
		c0,1.042,0,3.75,0,3.75h-3.75H52v8h20.5c1.354,0,4.5,0,4.5,0v4.5V48h4.25c1.041,0,3.75,0,3.75,0V51.75z"/>
</g>
</svg>
